<svg xmlns="http://www.w3.org/2000/svg" xmlns:xlink="http://www.w3.org/1999/xlink" width="44.465" height="42.733" viewBox="0 0 44.465 42.733">
  <defs>
    <filter id="Path_32" x="0" y="0" width="44.465" height="42.733" filterUnits="userSpaceOnUse">
      <feOffset dy="3" input="SourceAlpha"/>
      <feGaussianBlur stdDeviation="3" result="blur"/>
      <feFlood flood-opacity="0.161"/>
      <feComposite operator="in" in2="blur"/>
      <feComposite in="SourceGraphic"/>
    </filter>
  </defs>
  <g id="crown-1-svgrepo-com_1_" data-name="crown-1-svgrepo-com (1)" transform="translate(4.222 4.828)">
    <g transform="matrix(1, 0, 0, 1, -4.22, -4.83)" filter="url(#Path_32)">
      <path id="Path_32-2" data-name="Path 32" d="M31.524,6.414V21.379a7.814,7.814,0,0,1-7.811,7.811H8.092a7.665,7.665,0,0,1-2.078-.281,1.327,1.327,0,0,1-.562-2.218L22.057,10.085A1.477,1.477,0,0,1,23.4,9.757a1.646,1.646,0,0,0,1.437-.422L28.853,5.3C30.321,3.837,31.524,4.321,31.524,6.414Z" transform="translate(3.94 1.54)" fill="#2aaea5"/>
    </g>
    <path id="Path_33" data-name="Path 33" d="M21.746,9.413,5.39,25.769a1.568,1.568,0,0,1-2.5-.375A7.511,7.511,0,0,1,2,21.8V6.836C2,4.742,3.2,4.258,4.671,5.727L8.7,9.773a1.6,1.6,0,0,0,2.218,0l5.592-5.608a1.575,1.575,0,0,1,2.218,0L21.761,7.2A1.589,1.589,0,0,1,21.746,9.413Z" transform="translate(-2 -3.708)" fill="#297b77"/>
  </g>
</svg>
