<svg xmlns="http://www.w3.org/2000/svg" width="26.707" height="24.954" viewBox="0 0 26.707 24.954">
  <g id="chat-svgrepo-com" transform="translate(-8 56.032)">
    <g id="Group_13" data-name="Group 13" transform="translate(3 -2)">
      <g id="Group_12" data-name="Group 12" transform="translate(5 -54.032)">
        <path id="Path_25" data-name="Path 25" d="M24.416,154.968H2.292A2.454,2.454,0,0,0,0,157.557v15.825a2.454,2.454,0,0,0,2.292,2.589H9.344L11.6,179a2.128,2.128,0,0,0,3.507,0l2.256-3.03h7.053a2.454,2.454,0,0,0,2.292-2.589V157.557A2.454,2.454,0,0,0,24.416,154.968ZM11.33,169.4H5.359a1.3,1.3,0,0,1,0-2.589h5.97a1.3,1.3,0,0,1,0,2.589Zm9.409-5.353H5.359a1.3,1.3,0,0,1,0-2.589h15.38a1.3,1.3,0,0,1,0,2.589Z" transform="translate(0 -154.968)" fill="#fff"/>
      </g>
    </g>
  </g>
</svg>
