<svg xmlns="http://www.w3.org/2000/svg" width="24.521" height="23.486" viewBox="0 0 24.521 23.486">
  <path id="home-svgrepo-com" d="M24.09,16.087l-3.068-2.5v-4a.818.818,0,0,0-.817-.817H18.274a.818.818,0,0,0-.817.817v1.094l-4.1-3.341a1.8,1.8,0,0,0-2.2,0L.431,16.087c-.488.4-.458.743-.4.914s.256.457.882.457H2.385v11.5A1.489,1.489,0,0,0,3.87,30.452H8.511a1.453,1.453,0,0,0,1.448-1.489V24.245a.807.807,0,0,1,.78-.773h3.119a.742.742,0,0,1,.705.773v4.718a1.526,1.526,0,0,0,1.522,1.489H20.65a1.489,1.489,0,0,0,1.485-1.489v-11.5H23.6c.626,0,.822-.286.882-.457S24.577,16.484,24.09,16.087Z" transform="translate(0 -6.966)" fill="#fff"/>
</svg>
