<svg xmlns="http://www.w3.org/2000/svg" width="27.693" height="24.231" viewBox="0 0 27.693 24.231">
  <path id="shop-svgrepo-com" d="M27.465,42.393,24,36.336a1.731,1.731,0,0,0-1.5-.872H19.9V33.733A1.731,1.731,0,0,0,18.173,32H9.52a1.731,1.731,0,0,0-1.731,1.731v1.731h-2.6a1.731,1.731,0,0,0-1.5.872L.228,42.393a1.731,1.731,0,0,0,1.5,2.589h2.6V54.5a1.731,1.731,0,0,0,1.731,1.731h8.654V47.579H19.9v8.654h1.731A1.731,1.731,0,0,0,23.366,54.5V44.983h2.6a1.73,1.73,0,0,0,1.5-2.589ZM12.116,51.906H7.789V47.579h4.327Z" transform="translate(0 -32.002)" fill="#fff"/>
</svg>
