<svg id="pin-svgrepo-com" xmlns="http://www.w3.org/2000/svg" width="16.596" height="22.119" viewBox="0 0 16.596 22.119">
  <path id="pin-svgrepo-com-2" data-name="pin-svgrepo-com" d="M4,8.294A8.2,8.2,0,0,1,8.133,1.128,8.376,8.376,0,0,1,12.291,0a7.807,7.807,0,0,1,4.158,1.128,8.583,8.583,0,0,1,3.03,3.008,7.974,7.974,0,0,1,1.106,4.158,6.532,6.532,0,0,1-.464,2.212,18.544,18.544,0,0,1-1.172,2.544q-.708,1.283-1.615,2.61t-1.769,2.477q-.863,1.15-1.615,2.035t-1.194,1.438l-.464.509q-.177-.177-.464-.531t-1.172-1.393q-.885-1.04-1.637-2.079T7.27,15.682a20.977,20.977,0,0,1-1.637-2.654q-.641-1.261-1.172-2.5A4.9,4.9,0,0,1,4,8.294Zm2.765,0a5.331,5.331,0,0,0,1.615,3.915,5.331,5.331,0,0,0,3.915,1.615,5.331,5.331,0,0,0,3.915-1.615,5.331,5.331,0,0,0,1.615-3.915A5.259,5.259,0,0,0,16.206,4.4a5.529,5.529,0,0,0-3.915-1.637A5.082,5.082,0,0,0,8.376,4.4,5.451,5.451,0,0,0,6.761,8.294Z" transform="translate(-3.989 0.001)" fill="#fff"/>
</svg>
