<svg id="map-user-svgrepo-com" xmlns="http://www.w3.org/2000/svg" width="59.483" height="56.508" viewBox="0 0 59.483 56.508">
  <path id="Path_18" data-name="Path 18" d="M1.5,5A1.487,1.487,0,0,0,0,6.487V48.3a1.487,1.487,0,0,0,.86,1.348L19.7,58.4a1.491,1.491,0,0,0,1.254,0l7.768-3.61a20.741,20.741,0,0,1,.684-3.6L21.2,55,20.984,16.57,38.041,8.646l.092,15.97a11.653,11.653,0,0,1,1.778-1.175L39.824,8.436l16.684,7.75V33.3q0,.217,0,.434V44.376a11.4,11.4,0,0,1,2.314,2.312c.238.318.456.647.66.983V15.237a1.487,1.487,0,0,0-.861-1.349L39.786,5.139a1.49,1.49,0,0,0-1.254,0L20.323,13.6,2.113,5.139A1.487,1.487,0,0,0,1.5,5ZM2.974,8.818,19.2,16.354l.221,38.634L2.974,47.346Z" transform="translate(0 -5)" fill="#fff" fill-rule="evenodd" opacity="0.41"/>
  <path id="Path_19" data-name="Path 19" d="M66.276,37.769A8.922,8.922,0,1,0,75.2,46.691,8.922,8.922,0,0,0,66.276,37.769Zm0,19.167C56.42,56.936,52,61.356,52,71.212V72.4c.045,2.344,1.081,2.413,3.272,2.379H77.28c2.793,0,3.291,0,3.272-2.379v-1.19C80.551,61.356,76.131,56.936,66.276,56.936Z" transform="translate(-21.069 -18.277)" fill="#fcfcfc"/>
</svg>
