<svg id="notification-svgrepo-com" xmlns="http://www.w3.org/2000/svg" width="29.539" height="38.403" viewBox="0 0 29.539 38.403">
  <path id="Path_1" data-name="Path 1" d="M33.169,25.983,31.249,22.8a7.134,7.134,0,0,1-.768-2.842V15.1A11.346,11.346,0,0,0,24.01,4.861,5.619,5.619,0,0,0,19.056,2a5.685,5.685,0,0,0-4.973,2.919A11.383,11.383,0,0,0,7.746,15.1v4.858a6.962,6.962,0,0,1-.768,2.823L5.039,25.983a4.488,4.488,0,0,0,2.515,6.778,35.911,35.911,0,0,0,11.559,1.882A36.424,36.424,0,0,0,30.673,32.78a4.63,4.63,0,0,0,2.5-6.8Z" transform="translate(-4.311 -2)" fill="#fff"/>
  <path id="Path_2" data-name="Path 2" d="M20.029,20.019a5.788,5.788,0,0,1-5.434,3.821,5.694,5.694,0,0,1-4.071-1.709A5.3,5.3,0,0,1,9.18,20c.25.038.5.058.768.1.442.058.9.115,1.363.154,1.094.1,2.208.154,3.322.154,1.094,0,2.189-.058,3.264-.154.4-.038.806-.058,1.19-.115C19.395,20.1,19.7,20.058,20.029,20.019Z" transform="translate(0.17 14.563)" fill="#fff"/>
</svg>
