<svg id="Component_1_1" data-name="Component 1 – 1" xmlns="http://www.w3.org/2000/svg" width="50.455" height="52.153" viewBox="0 0 50.455 52.153">
  <path id="Path_3" data-name="Path 3" d="M21.774,2.359,7.506,7.7a8.277,8.277,0,0,0-4.955,7.186V35.9a8.613,8.613,0,0,0,3.061,6.122L19.88,52.686a8.091,8.091,0,0,0,9.157,0L43.305,42.024A8.662,8.662,0,0,0,46.366,35.9V14.889a8.24,8.24,0,0,0-4.955-7.16L27.144,2.385A8.825,8.825,0,0,0,21.774,2.359Z" transform="translate(-2.551 -1.954)" fill="#292d32" opacity="0.4"/>
  <path id="Path_4" data-name="Path 4" d="M23.174,11.51A11.674,11.674,0,1,0,34.848,23.184,11.691,11.691,0,0,0,23.174,11.51Z" transform="translate(11.716 13.281)" fill="#fcfcfc"/>
  <path id="Path_5" data-name="Path 5" d="M22.594,25.19a2.679,2.679,0,0,1-1.842-.752,2.477,2.477,0,0,1-.311-.415,1.442,1.442,0,0,1-.233-.441,1.649,1.649,0,0,1-.156-.467A3.516,3.516,0,0,1,20,22.6a2.582,2.582,0,0,1,.208-.986,2.678,2.678,0,0,1,.545-.856,2.59,2.59,0,0,1,2.335-.7,1.565,1.565,0,0,1,.493.156,1.442,1.442,0,0,1,.441.233,2.478,2.478,0,0,1,.415.311,2.678,2.678,0,0,1,.545.856,2.582,2.582,0,0,1,.208.986,2.728,2.728,0,0,1-.752,1.842c-.13.1-.259.208-.415.311a1.442,1.442,0,0,1-.441.233,1.565,1.565,0,0,1-.493.156A3.178,3.178,0,0,1,22.594,25.19Z" transform="translate(25.266 26.814)" fill="#e5e0e0"/>
</svg>
