<svg id="Component_3_1" data-name="Component 3 – 1" xmlns="http://www.w3.org/2000/svg" width="45.439" height="46.361" viewBox="0 0 45.439 46.361">
  <path id="Path_8" data-name="Path 8" d="M18.308,24.615A11.308,11.308,0,1,0,7,13.308,11.308,11.308,0,0,0,18.308,24.615Z" transform="translate(2.249 -2)" fill="#f6f6f6"/>
  <path id="Path_9" data-name="Path 9" d="M23.468,14.5C12.137,14.5,2.91,22.1,2.91,31.461a1.12,1.12,0,0,0,1.131,1.131H42.894a1.12,1.12,0,0,0,1.131-1.131C44.025,22.1,34.8,14.5,23.468,14.5Z" transform="translate(-2.91 13.769)" fill="#292d32" opacity="0.4"/>
  <path id="Path_10" data-name="Path 10" d="M32.572,29.094l-1.719-1.719a8.5,8.5,0,0,0,1.425-4.727,8.639,8.639,0,1,0-8.639,8.639,8.5,8.5,0,0,0,4.727-1.425l1.719,1.719a1.747,1.747,0,0,0,2.488,0A1.734,1.734,0,0,0,32.572,29.094Z" transform="translate(12.342 13.151)" fill="#f6f6f6"/>
</svg>
