<svg id="sports-shoes-1-svgrepo-com" xmlns="http://www.w3.org/2000/svg" width="62.401" height="52.461" viewBox="0 0 62.401 52.461">
  <path id="Path_11" data-name="Path 11" d="M32.193,230.93,1.785,205.12,0,207.224l30.412,25.813,0,0a19.229,19.229,0,0,0,12.364,4.511H62.271v-2.759H42.78A16.465,16.465,0,0,1,32.193,230.93Z" transform="translate(0 -185.091)" fill="#fcfcfc"/>
  <path id="Path_12" data-name="Path 12" d="M203.333,310.537l6.827,5.745a8.24,8.24,0,0,0-1.9-3.877c-.849-.971-2.673-2.974-4.866-5.428C203.333,308.162,203.31,309.359,203.333,310.537Z" transform="translate(-178.543 -274.534)" fill="#fcfcfc"/>
  <path id="Path_13" data-name="Path 13" d="M118.709,184.778c-1.184-1.056-2.237-2.033-3.107-2.9a47.056,47.056,0,0,0,2.789,3.96Q118.544,185.312,118.709,184.778Z" transform="translate(-101.513 -164.678)" fill="#fcfcfc"/>
  <path id="Path_14" data-name="Path 14" d="M156.541,221.147c-1.774-1.476-3.469-2.9-5-4.235-.109.5-.218,1.02-.322,1.551,1.2,1.379,2.747,3.032,4.854,5.154C156.209,222.817,156.365,221.991,156.541,221.147Z" transform="translate(-132.786 -195.446)" fill="#fcfcfc"/>
  <path id="Path_15" data-name="Path 15" d="M220.54,282c-.045-2.218-.536-7.709-4.139-10.75-3.4-2.872-7.222-5.983-10.824-8.962-.111.923-.213,1.9-.3,2.905.236.234.474.468.723.711,4.88,4.784,8.68,8.542,9.117,13.8A13.674,13.674,0,0,0,220.54,282Z" transform="translate(-180.258 -235.289)" fill="#fcfcfc"/>
  <path id="Path_16" data-name="Path 16" d="M143.2,248.8l5.014,4.219c.115-1.1.269-2.365.474-3.747-1.577-1.784-3.245-3.7-4.826-5.568C143.573,245.363,143.336,247.093,143.2,248.8Z" transform="translate(-125.745 -218.974)" fill="#fcfcfc"/>
  <path id="Path_17" data-name="Path 17" d="M37.773,63.5a48.86,48.86,0,0,1-5.321-7.37l.68-.815,0,0,.814-1.007s2.128,2.04,5.177,4.759c.489-1.443,1.042-2.917,1.668-4.385l1.158.437s-.677,2.115-1.417,5.193c1.542,1.351,3.245,2.807,4.991,4.229.327-1.389.705-2.808,1.145-4.23l1.14.3s-.441,2.062-.872,5.062c1.871,1.484,3.751,2.886,5.491,4.038C59.86,74.64,64.949,79.794,65.48,87.724h13.3c6.9,0,5.862-6.9,1.379-7.93a54.193,54.193,0,0,1-6.909-2.3,5.864,5.864,0,0,1-3.466-3.1s-.167-.354-.448-.954l-5.631,1.7a1.164,1.164,0,0,1-.674-2.228l5.3-1.6c-.456-.971-.986-2.1-1.543-3.293l-5.262,1.591a1.164,1.164,0,1,1-.674-2.228l4.94-1.494c-.526-1.128-1.049-2.252-1.533-3.3l-4.907,1.484a1.163,1.163,0,1,1-.674-2.227l4.6-1.391c-.659-1.434-1.138-2.5-1.264-2.826-.554-1.439-1.769-5.428-4.54-3.209C52.917,58.07,44.6,57,42.458,53.012c-1.609-2.988-.69-6.207,0-8.735.551-2.021-2.3-5.173-4.369-2.414C36.626,43.813,24.3,58.414,24.3,58.414l12.243,10.3C36.841,67.227,37.245,65.446,37.773,63.5Z" transform="translate(-21.335 -40.781)" fill="#fcfcfc"/>
</svg>
