<svg id="crown-svgrepo-com" xmlns="http://www.w3.org/2000/svg" width="20.783" height="16.882" viewBox="0 0 20.783 16.882">
  <path id="Path_20" data-name="Path 20" d="M57,265.661l2.25,10.04H73.575l2.25-10.04L70.5,268.882l-3.859-6.842-4.218,6.842Z" transform="translate(-55.955 -258.819)" fill="#ec9312"/>
  <path id="Path_21" data-name="Path 21" d="M420.094,107.423a2.191,2.191,0,1,1-2.191-2.191A2.191,2.191,0,0,1,420.094,107.423Z" transform="translate(-407.298 -105.232)" fill="#cb1b5b"/>
  <path id="Path_22" data-name="Path 22" d="M417.9,105.232a2.191,2.191,0,1,0,0,4.382Z" transform="translate(-407.298 -105.232)" fill="#e5226b"/>
  <path id="Path_23" data-name="Path 23" d="M57,438.312l2.25,10.04H73.575Z" transform="translate(-55.955 -431.47)" fill="#f4a832"/>
  <path id="Path_24" data-name="Path 24" d="M183.111,438.312l-2.25,10.04H166.536Z" transform="translate(-163.241 -431.47)" fill="#f4a832"/>
  <path id="Path_25" data-name="Path 25" d="M166.536,720.171h14.325l-7.163-4.339Z" transform="translate(-163.241 -703.289)" fill="#f5b617"/>
  <path id="Path_26" data-name="Path 26" d="M909.649,355.311a1.134,1.134,0,1,1-.332-.8A1.134,1.134,0,0,1,909.649,355.311Z" transform="translate(-888.866 -349.062)" fill="#0472af"/>
  <path id="Path_27" data-name="Path 27" d="M908.51,354.176a1.135,1.135,0,1,0,0,2.269Z" transform="translate(-888.862 -349.062)" fill="#1a8dcc"/>
  <path id="Path_28" data-name="Path 28" d="M8.414,355.311a1.134,1.134,0,1,1-.332-.8A1.134,1.134,0,0,1,8.414,355.311Z" transform="translate(-6.144 -349.062)" fill="#0472af"/>
  <path id="Path_29" data-name="Path 29" d="M7.279,354.176a1.135,1.135,0,1,0,0,2.269Z" transform="translate(-6.144 -349.062)" fill="#0092d2"/>
</svg>
